# xmcd
#
# Track frame offsets: 
#        150
#        11792
#        27067
#        45476
#        61177
#        80662
#        94768
#        111195
#        126800
#        139419
#        152298
#        164776
#
# Disc length: 2645 seconds
#
# Revision: 0
# Processed by: cddbd v1.5.2PL0 Copyright (c) Steve Scherf et al.
# Submitted via: ExactAudioCopy v1.0b1
#
DISCID=980a530c
DTITLE=Johnny Ketzel und sein Schliesser - Schluss mit Lustig
DYEAR=2011
DGENRE=Country
TTITLE0=Abgestürzt
TTITLE1=Dass will doch keiner hör`n
TTITLE2=Das dickste Stück
TTITLE3=Alles oder Nichts
TTITLE4=Schluss mit Lustig
TTITLE5=Ohne dich
TTITLE6=Lasst sie mich sehen
TTITLE7=Schönen Dank
TTITLE8=Trunkenbold
TTITLE9=Dreimal darfst du raten
TTITLE10=An der letzten Haltestelle
TTITLE11=Dies verdammte Nest
EXTD=
EXTT0=
EXTT1=
EXTT2=
EXTT3=
EXTT4=
EXTT5=
EXTT6=
EXTT7=
EXTT8=
EXTT9=
EXTT10=
EXTT11=
PLAYORDER=
